# xmcd
#
# Track frame offsets:
#	183
#	12533
#	29450
#	42223
#	60168
#	70725
#	89283
#	102533
#	118095
#	131608
#	144190
#	161793
#	177218
#	187803
#
# Disc length: 2742
#
# Revision: 4
# Processed by: cddbd v1.5.1PL0 Copyright (c) Steve Scherf et al.
# Submitted via: ExactAudioCopy v0.90b4
# Normalized: r2:DSETVAR1,TDELIM( - ),TSWAP
#
DISCID=b80ab40e
DTITLE=Various Artist - Country Hits Vol.2 - CD 1
DYEAR=1900
DGENRE=
TTITLE0=Tom T. Hall - The Year That Clayton Delaney Died
TTITLE1=Roy Buchanan - I Am Lonesome Fugitive
TTITLE2=The Statler Brothers - Take Me Home Country Roads
TTITLE3=Eddie Rabbit and Crystal Gayle - You And I
TTITLE4=Jerry Lee Lewis - I'm Left, You're Right, She's Gone
TTITLE5=Billy Ray Cyrus - Some Gave All
TTITLE6=The Kendalls - Thank God For The Radio
TTITLE7=Jacky White - That's The Way A Cowboy Rocks And Rolls
TTITLE8=Reba Mc Entire - Sweet Dreams
TTITLE9=Roy Drusky - Red Red Wine
TTITLE10=Johnny Cash - Sunday Morning Coming Down
TTITLE11=Billy Ray Cyrus - Achy Breaky Heart
TTITLE12=Dave Dudley - O Lonesome Me
TTITLE13=W.C McCall - Convoy
EXTD=Also Known as "O Lonesome Me - Various Artists"
EXTT0=
EXTT1=
EXTT2=
EXTT3=
EXTT4=
EXTT5=
EXTT6=
EXTT7=
EXTT8=
EXTT9=
EXTT10=
EXTT11=
EXTT12=
EXTT13=
PLAYORDER=
